<svg xmlns="http://www.w3.org/2000/svg" viewBox="0 0 720 380" font-family="system-ui,-apple-system,sans-serif">
<defs>
  <style>
    .grid { stroke: #e5e7eb; stroke-width: 0.8; }
    .axis { stroke: #374151; stroke-width: 1.5; }
    .curve { fill: none; stroke: #dc2626; stroke-width: 2.5; stroke-linejoin: round; }
    .bp-line { stroke-width: 0.8; stroke-dasharray: 5,4; }
    .bp-dot { stroke: #fff; stroke-width: 2; }
    .label { font-size: 10px; fill: #6b7280; }
    .label-bold { font-size: 10px; fill: #374151; font-weight: 600; }
    .val { font-size: 10px; fill: #6b7280; font-variant-numeric: tabular-nums; }
    .best-label { font-size: 12px; fill: #16a34a; font-weight: 700; }
    .axis-label { font-size: 12px; fill: #374151; font-weight: 600; }
    .title { font-size: 14px; fill: #1a1a2e; font-weight: 700; }
    .subtitle { font-size: 11px; fill: #9ca3af; }
  </style>
</defs>
<rect width="720" height="380" fill="#fafbfc" rx="8"/>
<text x="360" y="22" text-anchor="middle" class="title">H(x) — ukupni porez kućanstva</text>
<text x="360" y="38" text-anchor="middle" class="subtitle">A: 30.000€ bruto · B: 18.000€ bruto (dob 28, 50% umanjenje) · 3 djece · stope 20%/30%</text>
<line x1="80" y1="310" x2="670" y2="310" class="grid"/>
<text x="72" y="314" text-anchor="end" class="val">775 €</text>
<line x1="80" y1="258" x2="670" y2="258" class="grid"/>
<text x="72" y="262" text-anchor="end" class="val">1.346 €</text>
<line x1="80" y1="206" x2="670" y2="206" class="grid"/>
<text x="72" y="210" text-anchor="end" class="val">1.917 €</text>
<line x1="80" y1="154.00000000000003" x2="670" y2="154.00000000000003" class="grid"/>
<text x="72" y="158.00000000000003" text-anchor="end" class="val">2.487 €</text>
<line x1="80" y1="102.00000000000003" x2="670" y2="102.00000000000003" class="grid"/>
<text x="72" y="106.00000000000003" text-anchor="end" class="val">3.058 €</text>
<line x1="80" y1="50" x2="670" y2="50" class="grid"/>
<text x="72" y="54" text-anchor="end" class="val">3.629 €</text>
<line x1="80" y1="310" x2="670" y2="310" class="axis"/>
<line x1="80" y1="50" x2="80" y2="310" class="axis"/>
<path d="M80.0,74.5 L82.0,75.5 L83.9,76.4 L85.9,77.4 L87.9,78.3 L89.8,79.3 L91.8,80.3 L93.8,81.2 L95.7,82.2 L97.7,83.2 L99.7,84.1 L101.6,85.1 L103.6,86.0 L105.6,87.0 L107.5,88.0 L109.5,88.9 L111.5,89.9 L113.4,90.8 L115.4,91.8 L117.4,92.8 L119.3,93.7 L121.3,94.7 L123.3,95.7 L125.2,96.6 L127.2,97.6 L129.2,98.5 L131.1,99.5 L133.1,100.5 L135.1,101.4 L137.0,102.4 L139.0,103.4 L141.0,104.3 L142.9,105.3 L144.9,106.2 L146.9,107.2 L148.8,108.2 L150.8,109.1 L152.8,110.1 L154.7,111.1 L156.7,112.0 L158.7,113.0 L160.6,113.9 L162.6,114.9 L164.6,115.9 L166.5,116.8 L168.5,117.8 L170.5,118.8 L172.4,119.7 L174.4,120.7 L176.4,121.6 L178.3,122.6 L180.3,123.6 L182.3,124.5 L184.2,125.5 L186.2,126.4 L188.2,127.4 L190.1,128.4 L192.1,129.3 L194.1,130.3 L196.0,131.3 L198.0,132.2 L200.0,133.2 L201.9,134.1 L203.9,135.1 L205.9,136.1 L207.8,137.0 L209.8,138.0 L211.8,139.0 L213.7,139.9 L215.7,140.9 L217.7,141.8 L219.6,142.8 L221.6,143.8 L223.6,144.7 L225.5,145.7 L227.5,146.7 L229.5,147.6 L231.4,148.6 L233.4,149.5 L235.4,150.5 L237.3,151.5 L239.3,152.4 L241.3,153.4 L243.2,154.3 L245.2,155.3 L247.2,156.3 L249.1,157.2 L251.1,158.2 L253.1,159.2 L255.0,160.1 L257.0,161.1 L259.0,162.0 L260.9,163.0 L262.9,164.0 L264.9,164.9 L266.8,165.9 L268.8,166.9 L270.8,167.8 L272.7,168.8 L274.7,169.7 L276.7,170.7 L278.6,171.7 L280.6,172.6 L282.6,173.6 L284.5,174.6 L286.5,175.5 L288.5,176.5 L290.4,177.4 L292.4,178.4 L294.4,179.4 L296.3,180.3 L298.3,181.3 L300.3,182.3 L302.2,183.2 L304.2,184.2 L306.2,185.1 L308.1,186.1 L310.1,187.1 L312.1,188.0 L314.0,189.0 L316.0,189.9 L318.0,190.9 L319.9,191.9 L321.9,192.8 L323.9,193.8 L325.8,194.8 L327.8,195.7 L329.8,196.7 L331.7,197.6 L333.7,198.6 L335.7,199.6 L337.6,200.5 L339.6,201.5 L341.6,202.5 L343.5,203.4 L345.5,204.4 L347.5,205.3 L349.4,206.3 L351.4,207.3 L353.4,208.2 L355.3,209.2 L357.3,210.2 L359.3,211.1 L361.2,212.1 L363.2,213.0 L365.2,214.0 L367.1,215.0 L369.1,215.9 L371.1,216.9 L373.0,217.9 L375.0,218.8 L377.0,219.8 L378.9,220.7 L380.9,221.7 L382.9,222.7 L384.8,223.6 L386.8,224.6 L388.8,225.5 L390.7,226.5 L392.7,227.5 L394.7,228.4 L396.6,229.4 L398.6,230.4 L400.6,231.3 L402.5,232.1 L404.5,232.6 L406.5,233.1 L408.4,233.6 L410.4,234.0 L412.4,234.5 L414.3,235.0 L416.3,235.5 L418.3,236.0 L420.2,236.4 L422.2,236.9 L424.2,237.4 L426.1,237.9 L428.1,238.4 L430.1,238.8 L432.0,239.3 L434.0,239.8 L436.0,240.3 L437.9,240.8 L439.9,241.2 L441.9,241.7 L443.8,242.2 L445.8,242.7 L447.8,243.2 L449.7,243.7 L451.7,244.1 L453.7,244.6 L455.6,245.1 L457.6,245.6 L459.6,246.1 L461.5,246.5 L463.5,247.0 L465.5,247.5 L467.4,248.0 L469.4,248.5 L471.4,248.9 L473.3,249.4 L475.3,249.9 L477.3,250.4 L479.2,250.9 L481.2,251.4 L483.2,251.8 L485.1,252.3 L487.1,252.8 L489.1,253.3 L491.0,253.8 L493.0,254.2 L495.0,254.7 L496.9,255.2 L498.9,255.7 L500.9,256.2 L502.8,256.6 L504.8,257.1 L506.8,257.6 L508.7,258.1 L510.7,258.6 L512.7,259.0 L514.6,259.5 L516.6,260.0 L518.6,260.5 L520.5,261.0 L522.5,261.5 L524.5,261.9 L526.4,262.4 L528.4,262.9 L530.4,263.4 L532.3,263.9 L534.3,264.3 L536.3,264.8 L538.2,265.3 L540.2,265.8 L542.2,266.3 L544.1,266.7 L546.1,267.2 L548.1,267.7 L550.0,268.2 L552.0,268.7 L554.0,269.2 L555.9,269.6 L557.9,270.1 L559.9,270.6 L561.8,271.1 L563.8,271.6 L565.8,272.0 L567.7,272.5 L569.7,273.0 L571.7,273.5 L573.6,274.0 L575.6,274.4 L577.6,274.9 L579.5,275.4 L581.5,275.9 L583.5,276.4 L585.4,276.8 L587.4,277.3 L589.4,277.8 L591.3,278.3 L593.3,278.8 L595.3,279.3 L597.2,279.7 L599.2,280.2 L601.2,280.7 L603.1,281.2 L605.1,281.7 L607.1,282.1 L609.0,282.6 L611.0,283.1 L613.0,283.6 L614.9,284.1 L616.9,284.5 L618.9,285.0 L620.8,285.5 L622.8,286.0 L624.8,286.5 L626.7,287.0 L628.7,287.4 L630.7,287.9 L632.6,288.4 L634.6,288.9 L636.6,289.4 L638.5,289.8 L640.5,290.3 L642.5,290.8 L644.4,291.3 L646.4,291.8 L648.4,292.2 L650.3,292.7 L652.3,293.2 L654.3,293.7 L656.2,294.2 L658.2,294.6 L660.2,295.1 L662.1,295.6 L664.1,296.1 L666.1,296.6 L668.0,297.1 L670.0,297.5" class="curve"/>
<line x1="80" y1="50" x2="80" y2="310" stroke="#cbd5e1" class="bp-line"/>
<circle cx="80" cy="74.49116904962153" r="4.5" fill="#1a56db" class="bp-dot"/>
<text x="80" y="324" text-anchor="middle" class="label">0 €</text>
<text x="80" y="337" text-anchor="middle" class="val">3.360 €</text>
<line x1="670" y1="50" x2="670" y2="310" stroke="#16a34a" class="bp-line"/>
<circle cx="670" cy="297.53574432296045" r="6" fill="#16a34a" class="bp-dot"/>
<text x="670" y="324" text-anchor="middle" class="label-bold">15.840 €</text>
<text x="670" y="337" text-anchor="middle" class="val">912 €</text>
<text x="670" y="285.53574432296045" text-anchor="middle" class="best-label">★ MINIMUM</text>
<line x1="401.81818181818187" y1="50" x2="401.81818181818187" y2="310" stroke="#cbd5e1" class="bp-line"/>
<circle cx="401.81818181818187" cy="231.93439865433137" r="4.5" fill="#1a56db" class="bp-dot"/>
<text x="401.81818181818187" y="324" text-anchor="middle" class="label">8.640 €</text>
<text x="401.81818181818187" y="337" text-anchor="middle" class="val">1.632 €</text>
<text x="360" y="376" text-anchor="middle" class="axis-label">x → olakšica na Roditelju A (€)</text>
<text x="14" y="180" text-anchor="middle" class="axis-label" transform="rotate(-90 14 180)">Ukupni porez €</text>
</svg>